<?xml version="1.0" standalone="no"?>
<!DOCTYPE svg PUBLIC "-//W3C//DTD SVG 20010904//EN"
 "http://www.w3.org/TR/2001/REC-SVG-20010904/DTD/svg10.dtd">
<svg version="1.0" xmlns="http://www.w3.org/2000/svg"
 width="586.000000pt" height="586.000000pt" viewBox="0 0 586.000000 586.000000"
 preserveAspectRatio="xMidYMid meet">
<metadata>
Created by potrace 1.11, written by Peter Selinger 2001-2013
</metadata>
<g transform="translate(0.000000,586.000000) scale(0.100000,-0.100000)"
fill="#000000" stroke="none">
<path d="M986 4973 c7 -1481 5 -2613 -4 -2673 -6 -36 -14 -99 -17 -140 -4 -41
-8 -88 -11 -105 -10 -75 -16 -337 -10 -398 6 -48 14 -75 30 -95 25 -30 24 4
25 -764 1 -346 1 -346 22 -341 11 3 23 12 26 19 3 8 11 14 19 14 12 0 112 56
124 70 3 3 26 16 53 29 26 13 47 29 47 34 0 6 3 8 6 4 5 -5 122 58 134 72 3 4
17 12 32 18 15 7 46 25 70 40 24 15 57 35 73 43 17 8 49 27 72 43 24 15 46 27
51 27 4 0 18 9 30 20 12 12 22 18 22 15 0 -6 12 1 65 35 17 11 42 25 58 31 15
6 27 15 27 20 0 5 3 8 8 7 4 -1 27 10 52 25 25 15 81 49 125 74 44 26 83 51
86 56 3 5 8 7 10 6 5 -4 102 53 110 64 3 5 8 7 10 5 5 -4 173 94 177 104 2 4
12 8 23 8 10 0 19 3 19 8 0 4 21 18 48 32 26 13 49 27 52 30 3 3 21 14 40 24
19 9 64 35 100 57 36 22 74 44 85 50 11 5 34 18 50 29 17 10 49 29 73 41 23
13 42 26 42 31 0 4 3 7 8 6 12 -3 62 25 62 34 0 5 5 6 10 3 6 -3 10 -1 10 6 0
7 3 10 6 6 4 -3 21 5 39 18 17 14 35 25 39 25 4 0 32 16 62 35 30 19 58 35 63
35 4 0 19 8 32 18 13 10 44 29 69 42 25 14 52 30 61 37 14 12 20 9 45 -20 61
-72 142 -98 179 -57 19 22 22 52 10 153 -4 39 -3 67 2 67 8 0 125 64 183 101
16 10 320 187 385 225 22 13 51 29 65 36 14 7 27 15 30 18 5 5 39 25 109 62
23 12 41 25 41 30 0 4 9 8 19 8 11 0 22 4 25 9 4 5 37 26 74 47 37 20 69 40
72 44 3 4 20 13 38 21 17 8 32 18 32 22 0 5 4 6 9 2 5 -3 12 -1 15 4 5 8 35
26 166 99 25 14 51 31 58 39 7 7 18 13 23 13 5 0 28 12 52 27 23 15 44 28 47
28 3 0 16 8 30 16 14 9 44 28 68 41 l43 25 -26 22 c-15 11 -31 18 -36 15 -5
-3 -9 -1 -9 4 0 5 -15 17 -32 26 -18 9 -46 25 -63 35 -16 10 -47 28 -68 40
-21 12 -70 39 -108 61 -39 22 -75 40 -79 40 -5 0 -10 4 -12 8 -1 5 -28 22 -58
39 -102 56 -155 86 -192 110 -21 12 -42 23 -47 23 -5 0 -11 3 -13 8 -1 4 -28
20 -58 36 -30 16 -66 37 -80 46 -14 9 -50 30 -80 46 -30 16 -57 31 -60 34 -3
3 -22 14 -43 25 -21 11 -41 23 -43 27 -5 8 112 279 195 449 66 135 72 168 41
199 -38 38 -101 23 -212 -53 -76 -51 -247 -220 -359 -354 l-26 -32 -44 23
c-24 12 -69 38 -99 56 -30 18 -71 42 -90 52 -19 10 -53 29 -75 41 -22 13 -56
32 -75 42 -19 11 -37 22 -40 25 -3 3 -25 16 -50 29 -25 14 -48 29 -52 35 -4 6
-8 8 -8 3 0 -4 -18 4 -40 18 -22 14 -44 25 -50 25 -5 0 -10 5 -10 10 0 6 -4
10 -10 10 -5 0 -38 17 -73 39 -35 21 -73 42 -85 45 -12 4 -22 12 -22 17 0 6
-4 7 -10 4 -5 -3 -10 -1 -10 4 0 6 -7 11 -15 11 -8 0 -15 5 -15 10 0 6 -5 10
-11 10 -6 0 -49 23 -96 50 -47 28 -89 50 -94 50 -5 0 -9 4 -9 8 0 4 -12 13
-27 19 -42 18 -137 74 -144 85 -3 5 -9 9 -13 8 -9 -2 -325 178 -348 198 -10 8
-18 12 -18 9 0 -4 -24 9 -54 28 -29 19 -56 31 -60 28 -3 -4 -6 -1 -6 5 0 6
-21 21 -47 34 -27 13 -50 25 -53 28 -3 3 -16 11 -29 18 -13 8 -40 23 -60 34
-20 12 -56 32 -81 46 -25 13 -49 28 -55 32 -5 4 -41 25 -80 45 -38 21 -72 41
-75 44 -3 3 -18 13 -35 21 -16 8 -37 19 -45 26 -8 6 -40 25 -71 42 -32 16 -68
37 -81 46 -14 9 -28 13 -31 9 -4 -3 -7 -2 -7 4 0 5 -18 18 -40 29 -22 10 -40
22 -40 27 0 4 -4 7 -9 7 -5 0 -49 23 -98 51 -122 71 -171 99 -175 99 -2 0 -3
-219 -2 -487z"/>
</g>
</svg>
